<?xml version="1.0" encoding="UTF-8"?>
<!DOCTYPE svg PUBLIC "-//W3C//DTD SVG 1.1//EN" "http://www.w3.org/Graphics/SVG/1.1/DTD/svg11.dtd">
<svg xmlns="http://www.w3.org/2000/svg" xml:space="preserve" width="125.561mm" height="20.4046mm" version="1.1" style="shape-rendering:geometricPrecision; text-rendering:geometricPrecision; image-rendering:optimizeQuality; fill-rule:evenodd; clip-rule:evenodd"
viewBox="0 0 12556.06 2040.46"
 xmlns:xlink="http://www.w3.org/1999/xlink">
 <defs>
  <style type="text/css">
    .str0 {stroke:#F7DE3E;stroke-width:200;stroke-miterlimit:22.9256}
    .str3 {stroke:#F85479;stroke-width:200;stroke-miterlimit:22.9256}
    .str2 {stroke:#F95321;stroke-width:200;stroke-miterlimit:22.9256}
    .str1 {stroke:#FF8740;stroke-width:200;stroke-miterlimit:22.9256}
    .fil0 {fill:none}
    .fil2 {fill:#2B2A29;fill-rule:nonzero}
    .fil1 {fill:#FEFEFE;fill-rule:nonzero}
  </style>
 </defs>
 <g id="Layer_x0020_1">
  <g id="Group_x0020_of_x0020_4_x0020_Objects_x0020_">
   <rect class="fil0 str0" x="104.81" y="1064.33" width="6358.87" height="58.43"/>
   <rect class="fil0 str1" x="104.81" y="1324.33" width="6376.51" height="58.43"/>
   <rect class="fil0 str2" x="104.81" y="1584.33" width="6305.95" height="58.43"/>
   <rect class="fil0 str3" x="104.82" y="1834.33" width="6535.26" height="58.43"/>
  </g>
  <path class="fil1" d="M6798.68 2018.28c-105.15,0 -196.98,-39.49 -275.49,-118 -78.98,-78.97 -118,-170.8 -118,-275.49l0 -1049.61c0,-104.69 39.02,-196.52 118,-275.49 78.51,-78.52 170.34,-118 275.49,-118l524.8 0c104.69,0 196.52,39.48 275.49,118 78.52,78.97 118,170.8 118,275.49 0,34.89 -13.31,65.65 -39.48,91.83 -26.17,26.17 -56.94,39.48 -91.83,39.48 -34.9,0 -65.66,-13.31 -91.83,-39.48 -26.17,-26.18 -39.49,-56.94 -39.49,-91.83 0,-34.9 -12.86,-65.66 -39.03,-91.83 -26.17,-26.17 -56.93,-39.49 -91.83,-39.49l-524.8 0c-34.9,0 -65.66,13.32 -91.83,39.49 -26.17,26.17 -39.49,56.93 -39.49,91.83l0 1049.61c0,34.9 13.32,65.66 39.49,91.83 26.17,26.17 56.93,39.49 91.83,39.49l524.8 0c34.9,0 65.66,-13.32 91.83,-39.49 26.17,-26.17 39.03,-56.93 39.03,-91.83 0,-34.9 13.32,-65.66 39.49,-91.83 26.17,-26.17 56.93,-39.49 91.83,-39.49 34.89,0 65.66,13.32 91.83,39.49 26.17,26.17 39.48,56.93 39.48,91.83 0,104.69 -39.48,196.52 -118,275.49 -78.97,78.51 -170.8,118 -275.49,118l-524.8 0zm1443.1 -1049.61l656.12 0c34.9,0 65.66,-12.86 91.83,-39.03 26.17,-26.63 39.03,-56.94 39.03,-91.83l0 -262.63c0,-34.9 -12.86,-65.66 -39.03,-91.83 -26.17,-26.17 -56.93,-39.49 -91.83,-39.49l-656.12 0 0 524.81zm918.3 1049.61c-34.9,0 -65.66,-13.32 -91.83,-39.49 -26.17,-26.17 -39.49,-56.93 -39.49,-91.83l0 -524.8c0,-34.9 -12.86,-65.2 -39.03,-91.83 -26.17,-26.17 -56.93,-39.03 -91.83,-39.03l-656.12 0 0 655.66c0,34.9 -12.86,65.66 -39.49,91.83 -26.17,26.17 -56.47,39.49 -91.83,39.49 -34.89,0 -65.2,-13.32 -91.83,-39.49 -26.17,-26.17 -39.02,-56.93 -39.02,-91.83l0 -1573.96c0,-34.89 12.85,-65.66 39.02,-91.83 26.63,-26.17 56.94,-39.48 91.83,-39.48l787.44 0c104.69,0 196.52,39.48 275.49,118 78.52,78.97 118,170.8 118,275.49l0 262.63c0,104.69 -39.48,196.52 -118,275.49 78.52,61.07 118,144.17 118,248.86l0 524.8c0,34.9 -13.31,65.66 -39.48,91.83 -26.17,26.17 -56.94,39.49 -91.83,39.49zm787.44 0c-105.15,0 -196.98,-39.49 -275.49,-118 -78.98,-78.97 -118,-170.8 -118,-275.49l0 -1049.61c0,-104.69 39.02,-196.52 118,-275.49 78.51,-78.52 170.34,-118 275.49,-118l524.8 0c104.69,0 196.52,39.48 275.49,118 78.52,78.97 118,170.8 118,275.49l0 1049.61c0,104.69 -39.48,196.52 -118,275.49 -78.97,78.51 -170.8,118 -275.49,118l-524.8 0zm655.66 -1443.1c0,-34.9 -12.86,-65.66 -39.03,-91.83 -26.17,-26.17 -56.93,-39.49 -91.83,-39.49l-524.8 0c-34.9,0 -65.66,13.32 -91.83,39.49 -26.17,26.17 -39.49,56.93 -39.49,91.83l0 1049.61c0,34.9 13.32,65.66 39.49,91.83 26.17,26.17 56.93,39.49 91.83,39.49l524.8 0c34.9,0 65.66,-13.32 91.83,-39.49 26.17,-26.17 39.03,-56.93 39.03,-91.83l0 -1049.61zm787.44 393.49l656.12 0c34.9,0 65.66,-12.86 91.83,-39.03 26.17,-26.63 39.03,-56.94 39.03,-91.83l0 -262.63c0,-34.9 -12.86,-65.66 -39.03,-91.83 -26.17,-26.17 -56.93,-39.49 -91.83,-39.49l-656.12 0 0 524.81zm0 918.29c0,34.9 -12.86,65.66 -39.49,91.83 -26.17,26.17 -56.47,39.49 -91.83,39.49 -34.89,0 -65.2,-13.32 -91.83,-39.49 -26.17,-26.17 -39.02,-56.93 -39.02,-91.83l0 -1573.96c0,-34.89 12.85,-65.66 39.02,-91.83 26.63,-26.17 56.94,-39.48 91.83,-39.48l787.44 0c104.69,0 196.52,39.48 275.49,118 78.52,78.97 118,170.8 118,275.49l0 262.63c0,104.69 -39.48,196.52 -118,275.49 -78.97,78.51 -170.8,118 -275.49,118l-656.12 0 0 655.66z"/>
  <path class="fil2" d="M275.95 771.72c-41.77,0 -78.24,-15.68 -109.42,-46.87 -31.37,-31.37 -46.87,-67.84 -46.87,-109.42l0 -208.45c0,-41.76 15.5,-78.23 46.87,-109.42 31.18,-31.18 67.65,-46.87 109.42,-46.87l208.44 0c41.58,0 78.06,15.69 109.42,46.87 31.19,31.19 46.87,67.66 46.87,109.42 0,13.86 -5.29,26.08 -15.68,36.48 -10.4,10.39 -22.61,15.68 -36.47,15.68 -13.86,0 -26.08,-5.29 -36.48,-15.68 -10.39,-10.4 -15.68,-22.62 -15.68,-36.48 0,-13.86 -5.11,-26.08 -15.5,-36.47 -10.4,-10.4 -22.62,-15.68 -36.48,-15.68l-208.44 0c-13.86,0 -26.08,5.28 -36.48,15.68 -10.39,10.39 -15.68,22.61 -15.68,36.47l0 208.45c0,13.86 5.29,26.08 15.68,36.47 10.4,10.4 22.62,15.69 36.48,15.69l208.44 0c13.86,0 26.08,-5.29 36.48,-15.69 10.39,-10.39 15.5,-22.61 15.5,-36.47 0,-13.86 5.29,-26.08 15.68,-36.47 10.4,-10.4 22.62,-15.69 36.48,-15.69 13.86,0 26.07,5.29 36.47,15.69 10.39,10.39 15.68,22.61 15.68,36.47 0,41.58 -15.68,78.05 -46.87,109.42 -31.36,31.19 -67.84,46.87 -109.42,46.87l-208.44 0zm677.49 -416.89l0 364.73c0,13.86 -5.28,26.08 -15.68,36.48 -10.39,10.39 -22.61,15.68 -36.47,15.68 -13.86,0 -26.08,-5.29 -36.48,-15.68 -10.39,-10.4 -15.68,-22.62 -15.68,-36.48l0 -416.71c0,-14.04 5.29,-26.08 15.68,-36.47 10.4,-10.58 22.62,-15.69 36.48,-15.69l208.44 0c41.58,0 78.06,15.69 109.42,46.87 31.19,31.19 46.87,67.66 46.87,109.42 0,13.86 -5.29,26.08 -15.68,36.48 -10.4,10.39 -22.61,15.68 -36.47,15.68 -13.86,0 -26.08,-5.29 -36.48,-15.68 -10.39,-10.4 -15.68,-22.62 -15.68,-36.48 0,-13.86 -5.11,-26.08 -15.5,-36.47 -10.4,-10.4 -22.62,-15.68 -36.48,-15.68l-156.29 0zm573.19 416.89c-41.77,0 -78.24,-15.68 -109.42,-46.87 -31.37,-31.37 -46.87,-67.84 -46.87,-109.42l0 -208.45c0,-41.76 15.5,-78.23 46.87,-109.42 31.18,-31.18 67.65,-46.87 109.42,-46.87l208.44 0c41.58,0 78.06,15.69 109.42,46.87 31.19,31.19 46.87,67.66 46.87,109.42l0 104.14c0,14.04 -5.29,26.07 -15.68,36.47 -10.4,10.58 -22.61,15.68 -36.47,15.68l-364.74 0 0 52.16c0,13.86 5.29,26.08 15.68,36.47 10.4,10.4 22.62,15.69 36.48,15.69l208.44 0c13.86,0 26.08,5.1 36.48,15.5 10.39,10.39 15.5,22.61 15.5,36.47 0,13.86 -5.11,26.08 -15.5,36.48 -10.4,10.39 -22.62,15.68 -36.48,15.68l-208.44 0zm-52.16 -312.58l312.58 0 0 -52.16c0,-13.86 -5.11,-26.08 -15.5,-36.47 -10.4,-10.4 -22.62,-15.68 -36.48,-15.68l-208.44 0c-13.86,0 -26.08,5.28 -36.48,15.68 -10.39,10.39 -15.68,22.61 -15.68,36.47l0 52.16zm677.5 312.58c-41.77,0 -78.24,-15.68 -109.42,-46.87 -31.37,-31.37 -46.87,-67.84 -46.87,-109.42 0,-41.76 15.5,-78.24 46.87,-109.42 31.18,-31.37 67.65,-46.87 109.42,-46.87l260.42 0 0 -52.16c0,-13.86 -5.11,-26.08 -15.5,-36.47 -10.4,-10.4 -22.62,-15.68 -36.48,-15.68l-208.44 0c-13.86,0 -26.08,-5.11 -36.48,-15.51 -10.39,-10.57 -15.68,-22.61 -15.68,-36.47 0,-14.04 5.29,-26.08 15.68,-36.47 10.4,-10.58 22.62,-15.69 36.48,-15.69l208.44 0c41.58,0 78.06,15.69 109.42,46.87 31.19,31.19 46.87,67.66 46.87,109.42l0 312.58c0,13.86 -5.29,26.08 -15.68,36.48 -10.4,10.39 -22.61,15.68 -36.47,15.68l-312.58 0zm260.42 -208.45l-260.42 0c-13.86,0 -26.08,5.29 -36.48,15.69 -10.39,10.39 -15.68,22.61 -15.68,36.47 0,13.86 5.29,26.08 15.68,36.47 10.4,10.4 22.62,15.69 36.48,15.69l260.42 0 0 -104.32zm364.92 -208.44c-13.86,0 -26.08,-5.11 -36.48,-15.51 -10.39,-10.57 -15.68,-22.61 -15.68,-36.47 0,-14.04 5.29,-26.08 15.68,-36.47 10.4,-10.58 22.62,-15.69 36.48,-15.69l52.15 0 0 -156.29c0,-13.86 5.11,-26.07 15.51,-36.47 10.39,-10.39 22.61,-15.68 36.47,-15.68 14.04,0 26.08,5.29 36.47,15.68 10.4,10.4 15.69,22.61 15.69,36.47l0 156.29 156.29 0c13.86,0 26.07,5.11 36.47,15.69 10.39,10.39 15.68,22.43 15.68,36.47 0,13.86 -5.29,25.9 -15.68,36.47 -10.4,10.4 -22.61,15.51 -36.47,15.51l-156.29 0 0 260.6c0,13.86 5.29,26.08 15.68,36.47 10.4,10.4 22.61,15.69 36.47,15.69l104.14 0c13.86,0 26.07,5.1 36.47,15.5 10.39,10.39 15.68,22.61 15.68,36.47 0,13.86 -5.29,26.08 -15.68,36.48 -10.4,10.39 -22.61,15.68 -36.47,15.68l-104.14 0c-41.76,0 -78.23,-15.68 -109.42,-46.87 -31.36,-31.37 -46.87,-67.84 -46.87,-109.42l0 -260.6 -52.15 0zm677.49 0l-52.15 0c-13.86,0 -26.08,-5.11 -36.48,-15.51 -10.39,-10.57 -15.68,-22.61 -15.68,-36.47 0,-14.04 5.29,-26.08 15.68,-36.47 10.4,-10.58 22.62,-15.69 36.48,-15.69l104.13 0c14.04,0 26.08,5.11 36.47,15.69 10.4,10.39 15.69,22.43 15.69,36.47l0 364.74 52.15 0c13.86,0 26.08,5.1 36.48,15.5 10.39,10.39 15.5,22.61 15.5,36.47 0,13.86 -5.11,26.08 -15.5,36.48 -10.4,10.39 -22.62,15.68 -36.48,15.68l-208.44 0c-13.86,0 -26.08,-5.29 -36.48,-15.68 -10.39,-10.4 -15.68,-22.62 -15.68,-36.48 0,-13.86 5.29,-26.08 15.68,-36.47 10.4,-10.4 22.62,-15.5 36.48,-15.5l52.15 0 0 -312.76zm51.98 -208.45c-13.86,0 -26.08,-5.11 -36.47,-15.5 -10.4,-10.4 -15.51,-22.62 -15.51,-36.48 0,-13.86 5.11,-26.07 15.51,-36.47 10.39,-10.39 22.61,-15.68 36.47,-15.68 14.04,0 26.08,5.29 36.47,15.68 10.4,10.4 15.69,22.61 15.69,36.47 0,13.86 -5.29,26.08 -15.69,36.48 -10.39,10.39 -22.43,15.5 -36.47,15.5zm625.34 625.34c-13.86,0 -26.08,-5.29 -36.47,-15.68l-208.45 -208.45c-10.4,-10.4 -15.5,-22.43 -15.5,-36.47l0 -208.27c0,-14.04 5.1,-26.08 15.5,-36.47 10.58,-10.58 22.61,-15.69 36.47,-15.69 14.04,0 26.08,5.11 36.48,15.69 10.57,10.39 15.68,22.43 15.68,36.47l0 158.3 156.29 156.29 156.29 -156.29 0 -158.3c0,-14.04 5.29,-26.08 15.68,-36.47 10.4,-10.58 22.62,-15.69 36.48,-15.69 13.86,0 26.07,5.11 36.47,15.69 10.39,10.39 15.68,22.43 15.68,36.47l0 208.27c0,14.04 -5.29,26.07 -15.68,36.47l-208.45 208.45c-10.39,10.39 -22.43,15.68 -36.47,15.68zm573.36 -416.89l-52.15 0c-13.86,0 -26.08,-5.11 -36.48,-15.51 -10.39,-10.57 -15.68,-22.61 -15.68,-36.47 0,-14.04 5.29,-26.08 15.68,-36.47 10.4,-10.58 22.62,-15.69 36.48,-15.69l104.13 0c14.04,0 26.08,5.11 36.47,15.69 10.4,10.39 15.69,22.43 15.69,36.47l0 364.74 52.15 0c13.86,0 26.08,5.1 36.48,15.5 10.39,10.39 15.5,22.61 15.5,36.47 0,13.86 -5.11,26.08 -15.5,36.48 -10.4,10.39 -22.62,15.68 -36.48,15.68l-208.44 0c-13.86,0 -26.08,-5.29 -36.48,-15.68 -10.39,-10.4 -15.68,-22.62 -15.68,-36.48 0,-13.86 5.29,-26.08 15.68,-36.47 10.4,-10.4 22.62,-15.5 36.48,-15.5l52.15 0 0 -312.76zm51.98 -208.45c-13.86,0 -26.08,-5.11 -36.47,-15.5 -10.4,-10.4 -15.51,-22.62 -15.51,-36.48 0,-13.86 5.11,-26.07 15.51,-36.47 10.39,-10.39 22.61,-15.68 36.47,-15.68 14.04,0 26.08,5.29 36.47,15.68 10.4,10.4 15.69,22.61 15.69,36.47 0,13.86 -5.29,26.08 -15.69,36.48 -10.39,10.39 -22.43,15.5 -36.47,15.5zm521.21 208.45c-13.86,0 -26.08,-5.11 -36.48,-15.51 -10.39,-10.57 -15.68,-22.61 -15.68,-36.47 0,-14.04 5.29,-26.08 15.68,-36.47 10.4,-10.58 22.62,-15.69 36.48,-15.69l52.15 0 0 -156.29c0,-13.86 5.11,-26.07 15.51,-36.47 10.39,-10.39 22.61,-15.68 36.47,-15.68 14.04,0 26.08,5.29 36.47,15.68 10.4,10.4 15.69,22.61 15.69,36.47l0 156.29 156.29 0c13.86,0 26.07,5.11 36.47,15.69 10.39,10.39 15.68,22.43 15.68,36.47 0,13.86 -5.29,25.9 -15.68,36.47 -10.4,10.4 -22.61,15.51 -36.47,15.51l-156.29 0 0 260.6c0,13.86 5.29,26.08 15.68,36.47 10.4,10.4 22.61,15.69 36.47,15.69l104.14 0c13.86,0 26.07,5.1 36.47,15.5 10.39,10.39 15.68,22.61 15.68,36.47 0,13.86 -5.29,26.08 -15.68,36.48 -10.4,10.39 -22.61,15.68 -36.47,15.68l-104.14 0c-41.76,0 -78.23,-15.68 -109.42,-46.87 -31.36,-31.37 -46.87,-67.84 -46.87,-109.42l0 -260.6 -52.15 0zm625.34 312.76c-41.77,0 -78.24,-15.69 -109.42,-47.05 -31.37,-31.19 -46.87,-67.66 -46.87,-109.42l0 -208.27c0,-14.04 5.1,-26.08 15.5,-36.47 10.58,-10.58 22.61,-15.69 36.47,-15.69 14.04,0 26.08,5.11 36.48,15.69 10.57,10.39 15.68,22.43 15.68,36.47l0 208.27c0,14.04 5.29,26.07 15.68,36.47 10.4,10.58 22.62,15.68 36.48,15.68l260.42 0 0 -260.42c0,-14.04 5.29,-26.08 15.68,-36.47 10.4,-10.58 22.62,-15.69 36.48,-15.69 13.86,0 26.07,5.11 36.47,15.69 10.39,10.39 15.68,22.43 15.68,36.47l0 416.71c0,41.77 -15.68,78.24 -46.87,109.42 -31.36,31.37 -67.84,46.87 -109.42,46.87l-208.44 0c-13.86,0 -26.08,-5.1 -36.48,-15.5 -10.39,-10.39 -15.68,-22.61 -15.68,-36.47 0,-13.86 5.29,-26.08 15.68,-36.48 10.4,-10.39 22.62,-15.68 36.48,-15.68l208.44 0c13.86,0 26.08,-5.29 36.48,-15.68 10.39,-10.4 15.5,-22.62 15.5,-36.48l0 -51.97 -260.42 0z"/>
  <path class="fil2" d="M6888.66 1946.54c-105.15,0 -196.98,-39.49 -275.49,-118 -78.98,-78.97 -118,-170.8 -118,-275.49l0 -1049.61c0,-104.69 39.02,-196.52 118,-275.49 78.51,-78.52 170.34,-118 275.49,-118l524.8 0c104.69,0 196.52,39.48 275.49,118 78.52,78.97 118,170.8 118,275.49 0,34.89 -13.31,65.65 -39.48,91.83 -26.17,26.17 -56.94,39.48 -91.83,39.48 -34.9,0 -65.66,-13.31 -91.83,-39.48 -26.17,-26.18 -39.49,-56.94 -39.49,-91.83 0,-34.9 -12.86,-65.66 -39.03,-91.83 -26.17,-26.17 -56.93,-39.49 -91.83,-39.49l-524.8 0c-34.9,0 -65.66,13.32 -91.83,39.49 -26.17,26.17 -39.49,56.93 -39.49,91.83l0 1049.61c0,34.9 13.32,65.66 39.49,91.83 26.17,26.17 56.93,39.49 91.83,39.49l524.8 0c34.9,0 65.66,-13.32 91.83,-39.49 26.17,-26.17 39.03,-56.93 39.03,-91.83 0,-34.9 13.32,-65.66 39.49,-91.83 26.17,-26.17 56.93,-39.49 91.83,-39.49 34.89,0 65.66,13.32 91.83,39.49 26.17,26.17 39.48,56.93 39.48,91.83 0,104.69 -39.48,196.52 -118,275.49 -78.97,78.51 -170.8,118 -275.49,118l-524.8 0zm1443.1 -1049.61l656.12 0c34.9,0 65.66,-12.86 91.83,-39.03 26.17,-26.63 39.03,-56.94 39.03,-91.83l0 -262.63c0,-34.9 -12.86,-65.66 -39.03,-91.83 -26.17,-26.17 -56.93,-39.49 -91.83,-39.49l-656.12 0 0 524.81zm918.3 1049.61c-34.9,0 -65.66,-13.32 -91.83,-39.49 -26.17,-26.17 -39.49,-56.93 -39.49,-91.83l0 -524.8c0,-34.9 -12.86,-65.2 -39.03,-91.83 -26.17,-26.17 -56.93,-39.03 -91.83,-39.03l-656.12 0 0 655.66c0,34.9 -12.86,65.66 -39.49,91.83 -26.17,26.17 -56.47,39.49 -91.83,39.49 -34.89,0 -65.2,-13.32 -91.83,-39.49 -26.17,-26.17 -39.02,-56.93 -39.02,-91.83l0 -1573.96c0,-34.89 12.85,-65.66 39.02,-91.83 26.63,-26.17 56.94,-39.48 91.83,-39.48l787.44 0c104.69,0 196.52,39.48 275.49,118 78.52,78.97 118,170.8 118,275.49l0 262.63c0,104.69 -39.48,196.52 -118,275.49 78.52,61.07 118,144.17 118,248.86l0 524.8c0,34.9 -13.31,65.66 -39.48,91.83 -26.17,26.17 -56.94,39.49 -91.83,39.49zm787.44 0c-105.15,0 -196.98,-39.49 -275.49,-118 -78.98,-78.97 -118,-170.8 -118,-275.49l0 -1049.61c0,-104.69 39.02,-196.52 118,-275.49 78.51,-78.52 170.34,-118 275.49,-118l524.8 0c104.69,0 196.52,39.48 275.49,118 78.52,78.97 118,170.8 118,275.49l0 1049.61c0,104.69 -39.48,196.52 -118,275.49 -78.97,78.51 -170.8,118 -275.49,118l-524.8 0zm655.66 -1443.1c0,-34.9 -12.86,-65.66 -39.03,-91.83 -26.17,-26.17 -56.93,-39.49 -91.83,-39.49l-524.8 0c-34.9,0 -65.66,13.32 -91.83,39.49 -26.17,26.17 -39.49,56.93 -39.49,91.83l0 1049.61c0,34.9 13.32,65.66 39.49,91.83 26.17,26.17 56.93,39.49 91.83,39.49l524.8 0c34.9,0 65.66,-13.32 91.83,-39.49 26.17,-26.17 39.03,-56.93 39.03,-91.83l0 -1049.61zm787.44 393.49l656.12 0c34.9,0 65.66,-12.86 91.83,-39.03 26.17,-26.63 39.03,-56.94 39.03,-91.83l0 -262.63c0,-34.9 -12.86,-65.66 -39.03,-91.83 -26.17,-26.17 -56.93,-39.49 -91.83,-39.49l-656.12 0 0 524.81zm0 918.29c0,34.9 -12.86,65.66 -39.49,91.83 -26.17,26.17 -56.47,39.49 -91.83,39.49 -34.89,0 -65.2,-13.32 -91.83,-39.49 -26.17,-26.17 -39.02,-56.93 -39.02,-91.83l0 -1573.96c0,-34.89 12.85,-65.66 39.02,-91.83 26.63,-26.17 56.94,-39.48 91.83,-39.48l787.44 0c104.69,0 196.52,39.48 275.49,118 78.52,78.97 118,170.8 118,275.49l0 262.63c0,104.69 -39.48,196.52 -118,275.49 -78.97,78.51 -170.8,118 -275.49,118l-656.12 0 0 655.66z"/>
 </g>
</svg>
