<?xml version="1.0" encoding="UTF-8"?>
<!DOCTYPE svg PUBLIC "-//W3C//DTD SVG 1.1//EN" "http://www.w3.org/Graphics/SVG/1.1/DTD/svg11.dtd">
<!-- Creator: CorelDRAW 2018 (64-Bit) -->
<svg xmlns="http://www.w3.org/2000/svg" xml:space="preserve" width="63.5846mm" height="27.0086mm" version="1.1" style="shape-rendering:geometricPrecision; text-rendering:geometricPrecision; image-rendering:optimizeQuality; fill-rule:evenodd; clip-rule:evenodd"
viewBox="0 0 6358.46 2700.86"
 xmlns:xlink="http://www.w3.org/1999/xlink">
 <defs>
  <style type="text/css">
    .str0 {stroke:#9DAAF2;stroke-width:16.93;stroke-miterlimit:22.9256}
    .str1 {stroke:#F4DB7D;stroke-width:16.93;stroke-miterlimit:22.9256}
    .str2 {stroke:white;stroke-width:16.93;stroke-miterlimit:22.9256}
    .fil3 {fill:none}
    .fil1 {fill:#9DAAF2}
    .fil2 {fill:#F4DB7D}
    .fil4 {fill:white}
    .fil0 {fill:#2B2A29;fill-rule:nonzero}
  </style>
 </defs>
 <g id="Layer_x0020_1">
  <metadata id="CorelCorpID_0Corel-Layer"/>
  <path class="fil0" d="M274.93 785.16c-41.77,0 -78.24,-15.68 -109.42,-46.87 -31.37,-31.37 -46.87,-67.84 -46.87,-109.42l0 -208.45c0,-41.76 15.5,-78.23 46.87,-109.42 31.18,-31.18 67.65,-46.87 109.42,-46.87l208.44 0c41.58,0 78.06,15.69 109.42,46.87 31.19,31.19 46.87,67.66 46.87,109.42 0,13.86 -5.29,26.08 -15.68,36.48 -10.4,10.39 -22.61,15.68 -36.47,15.68 -13.86,0 -26.08,-5.29 -36.48,-15.68 -10.39,-10.4 -15.68,-22.62 -15.68,-36.48 0,-13.86 -5.11,-26.08 -15.5,-36.47 -10.4,-10.4 -22.62,-15.68 -36.48,-15.68l-208.44 0c-13.86,0 -26.08,5.28 -36.48,15.68 -10.39,10.39 -15.68,22.61 -15.68,36.47l0 208.45c0,13.86 5.29,26.08 15.68,36.47 10.4,10.4 22.62,15.69 36.48,15.69l208.44 0c13.86,0 26.08,-5.29 36.48,-15.69 10.39,-10.39 15.5,-22.61 15.5,-36.47 0,-13.86 5.29,-26.08 15.68,-36.47 10.4,-10.4 22.62,-15.69 36.48,-15.69 13.86,0 26.07,5.29 36.47,15.69 10.39,10.39 15.68,22.61 15.68,36.47 0,41.58 -15.68,78.05 -46.87,109.42 -31.36,31.19 -67.84,46.87 -109.42,46.87l-208.44 0zm677.49 -416.89l0 364.73c0,13.86 -5.28,26.08 -15.68,36.48 -10.39,10.39 -22.61,15.68 -36.47,15.68 -13.86,0 -26.08,-5.29 -36.48,-15.68 -10.39,-10.4 -15.68,-22.62 -15.68,-36.48l0 -416.71c0,-14.04 5.29,-26.08 15.68,-36.47 10.4,-10.58 22.62,-15.69 36.48,-15.69l208.44 0c41.58,0 78.06,15.69 109.42,46.87 31.19,31.19 46.87,67.66 46.87,109.42 0,13.86 -5.29,26.08 -15.68,36.48 -10.4,10.39 -22.61,15.68 -36.47,15.68 -13.86,0 -26.08,-5.29 -36.48,-15.68 -10.39,-10.4 -15.68,-22.62 -15.68,-36.48 0,-13.86 -5.11,-26.08 -15.5,-36.47 -10.4,-10.4 -22.62,-15.68 -36.48,-15.68l-156.29 0zm573.19 416.89c-41.77,0 -78.24,-15.68 -109.42,-46.87 -31.37,-31.37 -46.87,-67.84 -46.87,-109.42l0 -208.45c0,-41.76 15.5,-78.23 46.87,-109.42 31.18,-31.18 67.65,-46.87 109.42,-46.87l208.44 0c41.58,0 78.06,15.69 109.42,46.87 31.19,31.19 46.87,67.66 46.87,109.42l0 104.14c0,14.04 -5.29,26.07 -15.68,36.47 -10.4,10.58 -22.61,15.68 -36.47,15.68l-364.74 0 0 52.16c0,13.86 5.29,26.08 15.68,36.47 10.4,10.4 22.62,15.69 36.48,15.69l208.44 0c13.86,0 26.08,5.1 36.48,15.5 10.39,10.39 15.5,22.61 15.5,36.47 0,13.86 -5.11,26.08 -15.5,36.48 -10.4,10.39 -22.62,15.68 -36.48,15.68l-208.44 0zm-52.16 -312.58l312.58 0 0 -52.16c0,-13.86 -5.11,-26.08 -15.5,-36.47 -10.4,-10.4 -22.62,-15.68 -36.48,-15.68l-208.44 0c-13.86,0 -26.08,5.28 -36.48,15.68 -10.39,10.39 -15.68,22.61 -15.68,36.47l0 52.16zm677.5 312.58c-41.77,0 -78.24,-15.68 -109.42,-46.87 -31.37,-31.37 -46.87,-67.84 -46.87,-109.42 0,-41.76 15.5,-78.24 46.87,-109.42 31.18,-31.37 67.65,-46.87 109.42,-46.87l260.42 0 0 -52.16c0,-13.86 -5.11,-26.08 -15.5,-36.47 -10.4,-10.4 -22.62,-15.68 -36.48,-15.68l-208.44 0c-13.86,0 -26.08,-5.11 -36.48,-15.51 -10.39,-10.57 -15.68,-22.61 -15.68,-36.47 0,-14.04 5.29,-26.08 15.68,-36.47 10.4,-10.58 22.62,-15.69 36.48,-15.69l208.44 0c41.58,0 78.06,15.69 109.42,46.87 31.19,31.19 46.87,67.66 46.87,109.42l0 312.58c0,13.86 -5.29,26.08 -15.68,36.48 -10.4,10.39 -22.61,15.68 -36.47,15.68l-312.58 0zm260.42 -208.45l-260.42 0c-13.86,0 -26.08,5.29 -36.48,15.69 -10.39,10.39 -15.68,22.61 -15.68,36.47 0,13.86 5.29,26.08 15.68,36.47 10.4,10.4 22.62,15.69 36.48,15.69l260.42 0 0 -104.32zm364.92 -208.44c-13.86,0 -26.08,-5.11 -36.48,-15.51 -10.39,-10.57 -15.68,-22.61 -15.68,-36.47 0,-14.04 5.29,-26.08 15.68,-36.47 10.4,-10.58 22.62,-15.69 36.48,-15.69l52.15 0 0 -156.29c0,-13.86 5.11,-26.07 15.51,-36.47 10.39,-10.39 22.61,-15.68 36.47,-15.68 14.04,0 26.08,5.29 36.47,15.68 10.4,10.4 15.69,22.61 15.69,36.47l0 156.29 156.29 0c13.86,0 26.07,5.11 36.47,15.69 10.39,10.39 15.68,22.43 15.68,36.47 0,13.86 -5.29,25.9 -15.68,36.47 -10.4,10.4 -22.61,15.51 -36.47,15.51l-156.29 0 0 260.6c0,13.86 5.29,26.08 15.68,36.47 10.4,10.4 22.61,15.69 36.47,15.69l104.14 0c13.86,0 26.07,5.1 36.47,15.5 10.39,10.39 15.68,22.61 15.68,36.47 0,13.86 -5.29,26.08 -15.68,36.48 -10.4,10.39 -22.61,15.68 -36.47,15.68l-104.14 0c-41.76,0 -78.23,-15.68 -109.42,-46.87 -31.36,-31.37 -46.87,-67.84 -46.87,-109.42l0 -260.6 -52.15 0zm677.49 0l-52.15 0c-13.86,0 -26.08,-5.11 -36.48,-15.51 -10.39,-10.57 -15.68,-22.61 -15.68,-36.47 0,-14.04 5.29,-26.08 15.68,-36.47 10.4,-10.58 22.62,-15.69 36.48,-15.69l104.13 0c14.04,0 26.08,5.11 36.47,15.69 10.4,10.39 15.69,22.43 15.69,36.47l0 364.74 52.15 0c13.86,0 26.08,5.1 36.48,15.5 10.39,10.39 15.5,22.61 15.5,36.47 0,13.86 -5.11,26.08 -15.5,36.48 -10.4,10.39 -22.62,15.68 -36.48,15.68l-208.44 0c-13.86,0 -26.08,-5.29 -36.48,-15.68 -10.39,-10.4 -15.68,-22.62 -15.68,-36.48 0,-13.86 5.29,-26.08 15.68,-36.47 10.4,-10.4 22.62,-15.5 36.48,-15.5l52.15 0 0 -312.76zm51.98 -208.45c-13.86,0 -26.08,-5.11 -36.47,-15.5 -10.4,-10.4 -15.51,-22.62 -15.51,-36.48 0,-13.86 5.11,-26.07 15.51,-36.47 10.39,-10.39 22.61,-15.68 36.47,-15.68 14.04,0 26.08,5.29 36.47,15.68 10.4,10.4 15.69,22.61 15.69,36.47 0,13.86 -5.29,26.08 -15.69,36.48 -10.39,10.39 -22.43,15.5 -36.47,15.5zm625.34 625.34c-13.86,0 -26.08,-5.29 -36.47,-15.68l-208.45 -208.45c-10.4,-10.4 -15.5,-22.43 -15.5,-36.47l0 -208.27c0,-14.04 5.1,-26.08 15.5,-36.47 10.58,-10.58 22.61,-15.69 36.47,-15.69 14.04,0 26.08,5.11 36.48,15.69 10.57,10.39 15.68,22.43 15.68,36.47l0 158.3 156.29 156.29 156.29 -156.29 0 -158.3c0,-14.04 5.29,-26.08 15.68,-36.47 10.4,-10.58 22.62,-15.69 36.48,-15.69 13.86,0 26.07,5.11 36.47,15.69 10.39,10.39 15.68,22.43 15.68,36.47l0 208.27c0,14.04 -5.29,26.07 -15.68,36.47l-208.45 208.45c-10.39,10.39 -22.43,15.68 -36.47,15.68zm573.36 -416.89l-52.15 0c-13.86,0 -26.08,-5.11 -36.48,-15.51 -10.39,-10.57 -15.68,-22.61 -15.68,-36.47 0,-14.04 5.29,-26.08 15.68,-36.47 10.4,-10.58 22.62,-15.69 36.48,-15.69l104.13 0c14.04,0 26.08,5.11 36.47,15.69 10.4,10.39 15.69,22.43 15.69,36.47l0 364.74 52.15 0c13.86,0 26.08,5.1 36.48,15.5 10.39,10.39 15.5,22.61 15.5,36.47 0,13.86 -5.11,26.08 -15.5,36.48 -10.4,10.39 -22.62,15.68 -36.48,15.68l-208.44 0c-13.86,0 -26.08,-5.29 -36.48,-15.68 -10.39,-10.4 -15.68,-22.62 -15.68,-36.48 0,-13.86 5.29,-26.08 15.68,-36.47 10.4,-10.4 22.62,-15.5 36.48,-15.5l52.15 0 0 -312.76zm51.98 -208.45c-13.86,0 -26.08,-5.11 -36.47,-15.5 -10.4,-10.4 -15.51,-22.62 -15.51,-36.48 0,-13.86 5.11,-26.07 15.51,-36.47 10.39,-10.39 22.61,-15.68 36.47,-15.68 14.04,0 26.08,5.29 36.47,15.68 10.4,10.4 15.69,22.61 15.69,36.47 0,13.86 -5.29,26.08 -15.69,36.48 -10.39,10.39 -22.43,15.5 -36.47,15.5zm521.21 208.45c-13.86,0 -26.08,-5.11 -36.48,-15.51 -10.39,-10.57 -15.68,-22.61 -15.68,-36.47 0,-14.04 5.29,-26.08 15.68,-36.47 10.4,-10.58 22.62,-15.69 36.48,-15.69l52.15 0 0 -156.29c0,-13.86 5.11,-26.07 15.51,-36.47 10.39,-10.39 22.61,-15.68 36.47,-15.68 14.04,0 26.08,5.29 36.47,15.68 10.4,10.4 15.69,22.61 15.69,36.47l0 156.29 156.29 0c13.86,0 26.07,5.11 36.47,15.69 10.39,10.39 15.68,22.43 15.68,36.47 0,13.86 -5.29,25.9 -15.68,36.47 -10.4,10.4 -22.61,15.51 -36.47,15.51l-156.29 0 0 260.6c0,13.86 5.29,26.08 15.68,36.47 10.4,10.4 22.61,15.69 36.47,15.69l104.14 0c13.86,0 26.07,5.1 36.47,15.5 10.39,10.39 15.68,22.61 15.68,36.47 0,13.86 -5.29,26.08 -15.68,36.48 -10.4,10.39 -22.61,15.68 -36.47,15.68l-104.14 0c-41.76,0 -78.23,-15.68 -109.42,-46.87 -31.36,-31.37 -46.87,-67.84 -46.87,-109.42l0 -260.6 -52.15 0zm625.34 312.76c-41.77,0 -78.24,-15.69 -109.42,-47.05 -31.37,-31.19 -46.87,-67.66 -46.87,-109.42l0 -208.27c0,-14.04 5.1,-26.08 15.5,-36.47 10.58,-10.58 22.61,-15.69 36.47,-15.69 14.04,0 26.08,5.11 36.48,15.69 10.57,10.39 15.68,22.43 15.68,36.47l0 208.27c0,14.04 5.29,26.07 15.68,36.47 10.4,10.58 22.62,15.68 36.48,15.68l260.42 0 0 -260.42c0,-14.04 5.29,-26.08 15.68,-36.47 10.4,-10.58 22.62,-15.69 36.48,-15.69 13.86,0 26.07,5.11 36.47,15.69 10.39,10.39 15.68,22.43 15.68,36.47l0 416.71c0,41.77 -15.68,78.24 -46.87,109.42 -31.36,31.37 -67.84,46.87 -109.42,46.87l-208.44 0c-13.86,0 -26.08,-5.1 -36.48,-15.5 -10.39,-10.39 -15.68,-22.61 -15.68,-36.47 0,-13.86 5.29,-26.08 15.68,-36.48 10.4,-10.39 22.62,-15.68 36.48,-15.68l208.44 0c13.86,0 26.08,-5.29 36.48,-15.68 10.39,-10.4 15.5,-22.62 15.5,-36.48l0 -51.97 -260.42 0z"/>
  <path class="fil0" d="M1641.04 2643.61c-86.5,0 -162.04,-32.49 -226.63,-97.07 -64.97,-64.97 -97.07,-140.51 -97.07,-226.63l0 -863.46c0,-86.12 32.1,-161.66 97.07,-226.63 64.59,-64.59 140.13,-97.07 226.63,-97.07l431.73 0c86.12,0 161.66,32.48 226.63,97.07 64.59,64.97 97.07,140.51 97.07,226.63 0,28.7 -10.95,54.01 -32.48,75.55 -21.53,21.52 -46.84,32.47 -75.54,32.47 -28.71,0 -54.02,-10.95 -75.55,-32.47 -21.52,-21.54 -32.48,-46.85 -32.48,-75.55 0,-28.71 -10.58,-54.01 -32.11,-75.54 -21.53,-21.53 -46.83,-32.49 -75.54,-32.49l-431.73 0c-28.71,0 -54.01,10.96 -75.54,32.49 -21.53,21.53 -32.49,46.83 -32.49,75.54l0 863.46c0,28.71 10.96,54.01 32.49,75.54 21.53,21.53 46.83,32.49 75.54,32.49l431.73 0c28.71,0 54.01,-10.96 75.54,-32.49 21.53,-21.53 32.11,-46.83 32.11,-75.54 0,-28.71 10.96,-54.02 32.48,-75.55 21.53,-21.52 46.84,-32.48 75.55,-32.48 28.7,0 54.01,10.96 75.54,32.48 21.53,21.53 32.48,46.84 32.48,75.55 0,86.12 -32.48,161.66 -97.07,226.63 -64.97,64.58 -140.51,97.07 -226.63,97.07l-431.73 0zm1187.16 -863.46l539.75 0c28.71,0 54.02,-10.57 75.55,-32.1 21.53,-21.91 32.1,-46.84 32.1,-75.55l0 -216.05c0,-28.71 -10.57,-54.01 -32.1,-75.54 -21.53,-21.53 -46.84,-32.49 -75.55,-32.49l-539.75 0 0 431.73zm755.43 863.46c-28.71,0 -54.01,-10.96 -75.54,-32.49 -21.53,-21.53 -32.49,-46.83 -32.49,-75.54l0 -431.72c0,-28.71 -10.57,-53.64 -32.1,-75.55 -21.53,-21.53 -46.84,-32.1 -75.55,-32.1l-539.75 0 0 539.37c0,28.71 -10.58,54.01 -32.49,75.54 -21.52,21.53 -46.45,32.49 -75.54,32.49 -28.7,0 -53.64,-10.96 -75.54,-32.49 -21.53,-21.53 -32.1,-46.83 -32.1,-75.54l0 -1294.81c0,-28.7 10.57,-54.01 32.1,-75.54 21.9,-21.53 46.84,-32.48 75.54,-32.48l647.78 0c86.13,0 161.67,32.48 226.63,97.07 64.6,64.97 97.08,140.51 97.08,226.63l0 216.05c0,86.13 -32.48,161.67 -97.08,226.63 64.6,50.24 97.08,118.6 97.08,204.73l0 431.72c0,28.71 -10.95,54.01 -32.48,75.54 -21.53,21.53 -46.84,32.49 -75.55,32.49zm647.79 0c-86.5,0 -162.05,-32.49 -226.63,-97.07 -64.98,-64.97 -97.07,-140.51 -97.07,-226.63l0 -863.46c0,-86.12 32.09,-161.66 97.07,-226.63 64.58,-64.59 140.13,-97.07 226.63,-97.07l431.72 0c86.12,0 161.67,32.48 226.63,97.07 64.59,64.97 97.07,140.51 97.07,226.63l0 863.46c0,86.12 -32.48,161.66 -97.07,226.63 -64.96,64.58 -140.51,97.07 -226.63,97.07l-431.72 0zm539.37 -1187.16c0,-28.71 -10.58,-54.01 -32.11,-75.54 -21.52,-21.53 -46.83,-32.49 -75.54,-32.49l-431.72 0c-28.71,0 -54.02,10.96 -75.55,32.49 -21.52,21.53 -32.48,46.83 -32.48,75.54l0 863.46c0,28.71 10.96,54.01 32.48,75.54 21.53,21.53 46.84,32.49 75.55,32.49l431.72 0c28.71,0 54.02,-10.96 75.54,-32.49 21.53,-21.53 32.11,-46.83 32.11,-75.54l0 -863.46zm647.78 323.7l539.76 0c28.71,0 54.01,-10.57 75.54,-32.1 21.53,-21.91 32.11,-46.84 32.11,-75.55l0 -216.05c0,-28.71 -10.58,-54.01 -32.11,-75.54 -21.53,-21.53 -46.83,-32.49 -75.54,-32.49l-539.76 0 0 431.73zm0 755.43c0,28.71 -10.57,54.01 -32.48,75.54 -21.53,21.53 -46.46,32.49 -75.54,32.49 -28.71,0 -53.64,-10.96 -75.55,-32.49 -21.53,-21.53 -32.1,-46.83 -32.1,-75.54l0 -1294.81c0,-28.7 10.57,-54.01 32.1,-75.54 21.91,-21.53 46.84,-32.48 75.55,-32.48l647.78 0c86.12,0 161.66,32.48 226.63,97.07 64.59,64.97 97.07,140.51 97.07,226.63l0 216.05c0,86.13 -32.48,161.67 -97.07,226.63 -64.97,64.59 -140.51,97.08 -226.63,97.08l-539.76 0 0 539.37z"/>
  <polygon class="fil1" points="6283.76,1077.53 128.49,1077.53 128.49,1018.26 6283.76,1018.26 "/>
  <polygon class="fil2" points="6279.52,1019.22 128.49,1019.22 128.49,959.95 6279.52,959.95 "/>
  <polygon class="fil1" points="1210.41,2623.92 657.66,2623.92 657.66,1066.05 1210.41,1066.05 "/>
  <polygon class="fil2" points="665.33,2630.15 128.48,2630.15 128.48,1017.25 665.33,1017.25 "/>
  <path class="fil3 str0" d="M2033.49 1060.6c-289.38,3.52 -578.77,7.04 -717.29,125.96 -138.52,118.92 -126.19,353.24 -113.85,587.57"/>
  <polygon class="fil1" points="1123.59,1072 1579.81,1072 1579.81,1082.57 1123.59,1082.57 "/>
  <polygon class="fil1" points="1136.03,1259.31 1212.23,1259.31 1212.23,1052.13 1136.03,1052.13 "/>
  <polygon class="fil1" points="1146.38,1078.83 1156.26,1154.39 1361.7,1127.53 1351.82,1051.97 "/>
  <polygon class="fil1" points="1218.67,1143.64 1239.37,1186.99 1357.23,1130.71 1336.53,1087.36 "/>
  <polygon class="fil1" points="1186.76,1259.24 1224.87,1288.49 1304.39,1184.88 1266.29,1155.64 "/>
  <polygon class="fil1" points="1205.94,1236.03 1253.94,1237.9 1259.03,1107.39 1211.03,1105.52 "/>
  <polygon class="fil1" points="1231.32,1191.7 1260.44,1229.9 1364.31,1150.71 1335.18,1112.51 "/>
  <polygon class="fil1" points="1294.32,1104.28 1312.72,1148.65 1433.37,1098.62 1414.96,1054.25 "/>
  <polygon class="fil1" points="1357.82,1089.72 1376.22,1134.09 1496.87,1084.06 1478.46,1039.69 "/>
  <polygon class="fil1" points="1298.03,1120.64 1316.43,1165.01 1437.08,1114.98 1418.67,1070.61 "/>
  <polygon class="fil1" points="1419.09,1067.05 1425.81,1114.61 1555.13,1096.33 1548.41,1048.77 "/>
  <polygon class="fil1" points="1166.92,1352.76 1212.08,1369.14 1256.62,1246.36 1211.46,1229.98 "/>
  <path class="fil3 str0" d="M1199.53 2360.23c5.87,84.71 11.73,169.42 38.01,212.31 26.27,42.89 72.95,43.97 119.63,45.04"/>
  <polygon class="fil1" points="1199.53,2478.76 1210.11,2478.76 1210.11,2622.7 1199.53,2622.7 "/>
  <polygon class="fil1" points="1220.69,2555.61 1241.85,2555.61 1241.85,2622.7 1220.69,2622.7 "/>
  <polygon class="fil1" points="1203.76,2542.15 1224.92,2542.15 1224.92,2622.7 1203.76,2622.7 "/>
  <polygon class="fil1" points="1236.75,2578.35 1257.91,2578.35 1257.91,2622.7 1236.75,2622.7 "/>
  <polygon class="fil1" points="1268.56,2597.25 1268.76,2619.48 1219.3,2619.96 1219.1,2597.73 "/>
  <polygon class="fil1" points="1314.98,2611.04 1315.09,2621.62 1286.86,2621.85 1286.75,2611.27 "/>
  <path class="fil3 str1" d="M1119.09 1009.8c-151.25,3.14 -302.51,6.28 -379.41,76.8 -76.91,70.51 -79.46,208.4 -82.02,346.29"/>
  <path class="fil3 str1" d="M657.66 2392.56c-4.23,72.48 -8.47,144.96 25.71,183.52 34.18,38.56 106.78,43.2 179.37,47.84"/>
  <polygon class="fil2" points="644.96,1001.33 859.25,1001.33 859.25,1030.82 644.96,1030.82 "/>
  <polygon class="fil2" points="669.42,1011.84 672.75,1226.11 643.27,1226.57 639.94,1012.3 "/>
  <polygon class="fil2" points="835.97,1027.91 744.47,1083.89 720.91,1040.97 812.41,984.99 "/>
  <polygon class="fil2" points="743.9,1027.22 652.4,1083.2 628.84,1040.28 720.34,984.3 "/>
  <polygon class="fil2" points="749.18,1069.81 657.68,1125.79 634.12,1082.87 725.62,1026.89 "/>
  <polygon class="fil2" points="881.23,1020.34 780.48,1057.17 765.85,1010.44 866.6,973.61 "/>
  <polygon class="fil2" points="743.94,1087.04 663.84,1158.4 633.02,1120.36 713.12,1049 "/>
  <polygon class="fil2" points="703.83,1105.83 675.09,1209.18 628.59,1193.87 657.33,1090.52 "/>
  <polygon class="fil2" points="585.69,2529.56 665.99,2529.56 665.99,2623.92 585.69,2623.92 "/>
  <polygon class="fil2" points="637.69,2597.75 717.99,2597.75 717.99,2628.61 637.69,2628.61 "/>
  <polygon class="fil2" points="662.95,2579.6 703.1,2579.6 703.1,2605.77 662.95,2605.77 "/>
  <polygon class="fil2" points="700.47,2605.88 740.62,2605.88 740.62,2627.71 700.47,2627.71 "/>
  <polygon class="fil1" points="1221.77,2530.93 1221.97,2553.16 1172.51,2553.64 1172.31,2531.41 "/>
  <polygon class="fil1" points="1294.26,2612.06 1294.4,2623.17 1259.14,2623.41 1259,2612.3 "/>
  <polygon class="fil2" points="727.47,2610.73 767.62,2610.73 767.62,2628.73 727.47,2628.73 "/>
  <polygon class="fil2" points="761.59,2610.15 801.74,2610.15 801.74,2623.92 761.59,2623.92 "/>
  <polygon class="fil2" points="641.44,2565.14 681.59,2565.14 681.59,2586.97 641.44,2586.97 "/>
  <polygon class="fil1" points="869.23,2594.65 869.43,2616.88 819.97,2617.36 819.77,2595.13 "/>
  <polygon class="fil4" points="90.39,2619.48 1360.39,2619.48 1360.39,2738.01 90.39,2738.01 "/>
  <path class="fil3 str2" d="M763.49 950.53c-211.67,3.14 -423.33,6.28 -531.98,88.13 -108.66,81.84 -114.31,242.39 -119.95,402.94"/>
  <path class="fil3 str2" d="M120.03 2389.86c-2.4,73 -4.81,146 30.29,184.82 35.09,38.82 107.69,43.46 180.28,48.1"/>
  <polygon class="fil4" points="77.69,2525.33 136.96,2525.33 136.96,2720.06 77.69,2720.06 "/>
  <polygon class="fil4" points="158.12,2605.76 217.39,2605.76 217.39,2703.13 158.12,2703.13 "/>
  <polygon class="fil4" points="124.26,2597.17 183.53,2597.17 183.53,2791.9 124.26,2791.9 "/>
  <polygon class="fil4" points="95.89,2571.77 155.16,2571.77 155.16,2766.5 95.89,2766.5 "/>
  <polygon class="fil4" points="119.05,2586.59 178.32,2586.59 178.32,2781.32 119.05,2781.32 "/>
  <polygon class="fil4" points="201.19,867.15 305.17,966.66 117.85,1162.4 13.87,1062.89 "/>
  <polygon class="fil4" points="77.69,2525.33 136.96,2525.33 136.96,2720.06 77.69,2720.06 "/>
  <polygon class="fil4" points="112.71,1088.46 163.8,1112.9 117.79,1209.07 66.7,1184.62 "/>
  <polygon class="fil4" points="335.77,897.32 370.45,960.38 251.75,1025.65 217.08,962.59 "/>
  <polygon class="fil4" points="439.25,891.29 453.79,961.77 321.12,989.14 306.58,918.66 "/>
 </g>
</svg>
