<svg width="63.585mm" height="27.009mm" clip-rule="evenodd" fill-rule="evenodd" image-rendering="optimizeQuality" shape-rendering="geometricPrecision" text-rendering="geometricPrecision" version="1.1" viewBox="0 0 6358.5 2700.9" xml:space="preserve" xmlns="http://www.w3.org/2000/svg">
 <defs>
  <style type="text/css">
    .str0 {stroke:#9DAAF2;stroke-width:16.93;stroke-miterlimit:22.9256}
    .str1 {stroke:#F4DB7D;stroke-width:16.93;stroke-miterlimit:22.9256}
    .str2 {stroke:white;stroke-width:16.93;stroke-miterlimit:22.9256}
    .fil3 {fill:none}
    .fil1 {fill:#9DAAF2}
    .fil2 {fill:#F4DB7D}
    .fil4 {fill:white}
    .fil0 {fill:#2B2A29;fill-rule:nonzero}
  </style>
 </defs>
 <g>
  
  
  
  
  
  
  
  
  
  
  
  
  
  
  
  
  
  
  
  
  
  
  
  
  
  
  
  
  
  
  
  
  
  
  
  
  
  
  
  
  
  
  
  
  
  
  
  
  
  
  
  
  
  
  
  
  
  
  
  
 <g transform="translate(52.917)" fill="#2b2a29" stroke-width="26.458"><g aria-label="creativi"><path d="m277.07 785.52q-62.492 0-109.36-46.869-46.869-46.869-46.869-109.36v-208.31q0-62.492 46.869-109.36t109.36-46.869h208.31q62.492 0 109.36 46.869t46.869 109.36q0 20.831-15.623 36.454t-36.454 15.623q-20.831 0-36.454-15.623t-15.623-36.454q0-20.831-15.623-36.454t-36.454-15.623h-208.31q-20.831 0-36.454 15.623t-15.623 36.454v208.31q0 20.831 15.623 36.454t36.454 15.623h208.31q20.831 0 36.454-15.623t15.623-36.454q0-20.831 15.623-36.454t36.454-15.623q20.831 0 36.454 15.623t15.623 36.454q0 62.492-46.869 109.36-46.869 46.869-109.36 46.869z"/><path d="m954.06 368.91v364.54q0 20.831-15.623 36.454t-36.454 15.623q-20.831 0-36.454-15.623t-15.623-36.454v-416.61q0-20.831 15.623-36.454t36.454-15.623h208.31q62.492 0 109.36 46.869t46.869 109.36q0 20.831-15.623 36.454t-36.454 15.623q-20.831 0-36.454-15.623t-15.623-36.454q0-20.831-15.623-36.454t-36.454-15.623z"/><path d="m1526.9 785.52q-62.492 0-109.36-46.869-46.869-46.869-46.869-109.36v-208.31q0-62.492 46.869-109.36t109.36-46.869h208.31q62.492 0 109.36 46.869t46.869 109.36v104.15q0 20.831-15.623 36.454t-36.454 15.623h-364.54v52.077q0 20.831 15.623 36.454t36.454 15.623h208.31q20.831 0 36.454 15.623t15.623 36.454q0 20.831-15.623 36.454t-36.454 15.623zm-52.077-312.46h312.46v-52.077q0-20.831-15.623-36.454t-36.454-15.623h-208.31q-20.831 0-36.454 15.623t-15.623 36.454z"/><path d="m2151.8 785.52q-62.492 0-109.36-46.869-46.869-46.869-46.869-109.36t46.869-109.36 109.36-46.869h260.38v-52.077q0-20.831-15.623-36.454t-36.454-15.623h-208.31q-20.831 0-36.454-15.623t-15.623-36.454 15.623-36.454 36.454-15.623h208.31q62.492 0 109.36 46.869t46.869 109.36v312.46q0 20.831-15.623 36.454t-36.454 15.623zm260.38-208.31h-260.38q-20.831 0-36.454 15.623t-15.623 36.454q0 20.831 15.623 36.454t36.454 15.623h260.38z"/><path d="m2776.7 368.91q-20.831 0-36.454-15.623t-15.623-36.454 15.623-36.454 36.454-15.623h52.077v-156.23q0-20.831 15.623-36.454 15.623-15.623 36.454-15.623 20.831 0 36.454 15.623 15.623 15.623 15.623 36.454v156.23h156.23q20.831 0 36.454 15.623t15.623 36.454-15.623 36.454-36.454 15.623h-156.23v260.38q0 20.831 15.623 36.454t36.454 15.623h104.15q20.831 0 36.454 15.623t15.623 36.454q0 20.831-15.623 36.454t-36.454 15.623h-104.15q-62.492 0-109.36-46.869-46.869-46.869-46.869-109.36v-260.38z"/><path d="m3453.7 368.91h-52.077q-20.831 0-36.454-15.623t-15.623-36.454 15.623-36.454 36.454-15.623h104.15q20.831 0 36.454 15.623t15.623 36.454v364.54h52.077q20.831 0 36.454 15.623t15.623 36.454q0 20.831-15.623 36.454t-36.454 15.623h-208.31q-20.831 0-36.454-15.623t-15.623-36.454q0-20.831 15.623-36.454t36.454-15.623h52.077zm52.077-208.31q-20.831 0-36.454-15.623t-15.623-36.454q0-20.831 15.623-36.454 15.623-15.623 36.454-15.623 20.831 0 36.454 15.623 15.623 15.623 15.623 36.454 0 20.831-15.623 36.454t-36.454 15.623z"/><path d="m4130.7 785.52q-20.831 0-36.454-15.623l-208.31-208.31q-15.623-15.623-15.623-36.454v-208.31q0-20.831 15.623-36.454t36.454-15.623q20.831 0 36.454 15.623t15.623 36.454v158.31l156.23 156.23 156.23-156.23v-158.31q0-20.831 15.623-36.454t36.454-15.623q20.831 0 36.454 15.623t15.623 36.454v208.31q0 20.831-15.623 36.454l-208.31 208.31q-15.623 15.623-36.454 15.623z"/><path d="m4703.6 368.91h-52.077q-20.831 0-36.454-15.623t-15.623-36.454 15.623-36.454 36.454-15.623h104.15q20.831 0 36.454 15.623t15.623 36.454v364.54h52.077q20.831 0 36.454 15.623t15.623 36.454q0 20.831-15.623 36.454t-36.454 15.623h-208.31q-20.831 0-36.454-15.623t-15.623-36.454q0-20.831 15.623-36.454t36.454-15.623h52.077zm52.077-208.31q-20.831 0-36.454-15.623t-15.623-36.454q0-20.831 15.623-36.454 15.623-15.623 36.454-15.623 20.831 0 36.454 15.623 15.623 15.623 15.623 36.454 0 20.831-15.623 36.454t-36.454 15.623z"/></g><g aria-label="ty"><path d="m5105.8 368.9q-20.831 0-36.454-15.623t-15.623-36.454q0-20.831 15.623-36.454t36.454-15.623h52.077v-156.23q0-20.831 15.623-36.454t36.454-15.623q20.831 0 36.454 15.623t15.623 36.454v156.23h156.23q20.831 0 36.454 15.623t15.623 36.454q0 20.831-15.623 36.454t-36.454 15.623h-156.23v260.38q0 20.831 15.623 36.454t36.454 15.623h104.15q20.831 0 36.454 15.623t15.623 36.454q0 20.831-15.623 36.454t-36.454 15.623h-104.15q-62.492 0-109.36-46.869t-46.869-109.36v-260.38z"/><path d="m5730.7 681.36q-62.492 0-109.36-46.869t-46.869-109.36v-208.31q0-20.831 15.623-36.454t36.454-15.623q20.831 0 36.454 15.623t15.623 36.454v208.31q0 20.831 15.623 36.454t36.454 15.623h260.38v-260.38q0-20.831 15.623-36.454t36.454-15.623q20.831 0 36.454 15.623t15.623 36.454v416.61q0 62.492-46.869 109.36t-109.36 46.869h-208.31q-20.831 0-36.454-15.623t-15.623-36.454q0-20.831 15.623-36.454t36.454-15.623h208.31q20.831 0 36.454-15.623t15.623-36.454v-52.077z"/></g></g><g clip-rule="evenodd" fill-rule="evenodd" shape-rendering="geometricPrecision"><path class="fil2" transform="scale(26.458)" d="m22.23 36.281v0.02539h-5.1797c-3.2508 0-6.0951 1.3471-8.5332 4.041-2.4381 2.6939-3.6582 5.8378-3.6582 9.4297v6.0391h-0.00391v27.158h0.00391v2.7207c0 3.5919 1.2201 6.7358 3.6582 9.4297 2.4381 2.6939 5.2824 4.041 8.5332 4.041h6.4766v2e-3h13.264c-3.1364-0.07149-5.8926-1.3598-8.2617-3.8848-2.4381-2.5985-3.6562-5.631-3.6562-9.0957v-34.647c0-3.4647 1.2182-6.4952 3.6562-9.0938 0.60952-0.64963 1.244-1.2178 1.9043-1.7051 1.9809-1.4619 4.1908-2.1934 6.6289-2.1934h200.44v-2.2676z" image-rendering="optimizeQuality" stroke-width=".03659"/><path class="fil1" transform="scale(26.458)" d="m37.062 38.549c-3.2508 0-6.0951 1.2999-8.5332 3.8984-2.4381 2.5985-3.6562 5.6291-3.6562 9.0938v34.646c0 3.4647 1.2182 6.4972 3.6562 9.0957 2.4381 2.5985 5.2824 3.8984 8.5332 3.8984h14.75c-0.3588-0.31786-0.71195-0.65554-1.0547-1.0254-2.4381-2.631-3.6562-5.701-3.6562-9.209v-35.078c0-3.5079 1.2182-6.578 3.6562-9.209 2.4381-2.631 5.2824-3.9473 8.5332-3.9473h16.254c0.07599 0 0.14907 0.01028 0.22461 0.01172h161.73v-2.1758h-198.37z" image-rendering="optimizeQuality" stroke-width=".03441"/><path class="fil0" d="m1641 2643.6c-86.5 0-162.04-32.49-226.63-97.07-64.97-64.97-97.07-140.51-97.07-226.63v-863.46c0-86.12 32.1-161.66 97.07-226.63 64.59-64.59 140.13-97.07 226.63-97.07h431.73c86.12 0 161.66 32.48 226.63 97.07 64.59 64.97 97.07 140.51 97.07 226.63 0 28.7-10.95 54.01-32.48 75.55-21.53 21.52-46.84 32.47-75.54 32.47-28.71 0-54.02-10.95-75.55-32.47-21.52-21.54-32.48-46.85-32.48-75.55 0-28.71-10.58-54.01-32.11-75.54s-46.83-32.49-75.54-32.49h-431.73c-28.71 0-54.01 10.96-75.54 32.49s-32.49 46.83-32.49 75.54v863.46c0 28.71 10.96 54.01 32.49 75.54s46.83 32.49 75.54 32.49h431.73c28.71 0 54.01-10.96 75.54-32.49s32.11-46.83 32.11-75.54 10.96-54.02 32.48-75.55c21.53-21.52 46.84-32.48 75.55-32.48 28.7 0 54.01 10.96 75.54 32.48 21.53 21.53 32.48 46.84 32.48 75.55 0 86.12-32.48 161.66-97.07 226.63-64.97 64.58-140.51 97.07-226.63 97.07zm1187.2-863.46h539.75c28.71 0 54.02-10.57 75.55-32.1 21.53-21.91 32.1-46.84 32.1-75.55v-216.05c0-28.71-10.57-54.01-32.1-75.54s-46.84-32.49-75.55-32.49h-539.75zm755.43 863.46c-28.71 0-54.01-10.96-75.54-32.49s-32.49-46.83-32.49-75.54v-431.72c0-28.71-10.57-53.64-32.1-75.55-21.53-21.53-46.84-32.1-75.55-32.1h-539.75v539.37c0 28.71-10.58 54.01-32.49 75.54-21.52 21.53-46.45 32.49-75.54 32.49-28.7 0-53.64-10.96-75.54-32.49-21.53-21.53-32.1-46.83-32.1-75.54v-1294.8c0-28.7 10.57-54.01 32.1-75.54 21.9-21.53 46.84-32.48 75.54-32.48h647.78c86.13 0 161.67 32.48 226.63 97.07 64.6 64.97 97.08 140.51 97.08 226.63v216.05c0 86.13-32.48 161.67-97.08 226.63 64.6 50.24 97.08 118.6 97.08 204.73v431.72c0 28.71-10.95 54.01-32.48 75.54s-46.84 32.49-75.55 32.49zm647.79 0c-86.5 0-162.05-32.49-226.63-97.07-64.98-64.97-97.07-140.51-97.07-226.63v-863.46c0-86.12 32.09-161.66 97.07-226.63 64.58-64.59 140.13-97.07 226.63-97.07h431.72c86.12 0 161.67 32.48 226.63 97.07 64.59 64.97 97.07 140.51 97.07 226.63v863.46c0 86.12-32.48 161.66-97.07 226.63-64.96 64.58-140.51 97.07-226.63 97.07zm539.37-1187.2c0-28.71-10.58-54.01-32.11-75.54-21.52-21.53-46.83-32.49-75.54-32.49h-431.72c-28.71 0-54.02 10.96-75.55 32.49-21.52 21.53-32.48 46.83-32.48 75.54v863.46c0 28.71 10.96 54.01 32.48 75.54 21.53 21.53 46.84 32.49 75.55 32.49h431.72c28.71 0 54.02-10.96 75.54-32.49 21.53-21.53 32.11-46.83 32.11-75.54zm647.78 323.7h539.76c28.71 0 54.01-10.57 75.54-32.1 21.53-21.91 32.11-46.84 32.11-75.55v-216.05c0-28.71-10.58-54.01-32.11-75.54s-46.83-32.49-75.54-32.49h-539.76zm0 755.43c0 28.71-10.57 54.01-32.48 75.54-21.53 21.53-46.46 32.49-75.54 32.49-28.71 0-53.64-10.96-75.55-32.49-21.53-21.53-32.1-46.83-32.1-75.54v-1294.8c0-28.7 10.57-54.01 32.1-75.54 21.91-21.53 46.84-32.48 75.55-32.48h647.78c86.12 0 161.66 32.48 226.63 97.07 64.59 64.97 97.07 140.51 97.07 226.63v216.05c0 86.13-32.48 161.67-97.07 226.63-64.97 64.59-140.51 97.08-226.63 97.08h-539.76z" image-rendering="optimizeQuality"/></g></g>
</svg>
